#!OML:ASF H:\Not Pregnant\Project 1\Capture day 1\Session 1\non-pregnant.ASF
:FULLY-SPECIFIED
:DEGREES
899
root -4.42188 16.1737 8.98895 -171.272 192.946 -175.863
lowerback 6.2024 3.75502 -3.40233
upperback -8.0835 4.43292 -2.25352
thorax -12.3159 2.29609 -1.29718
lowerneck 9.95495 -12.079 -28.9357
upperneck -1.83455 -20.9092 38.6482
head 5.93263 -11.5534 17.4436
rclavicle 6.86304e-014 7.25564e-015
rhumerus -29.691 29.3098 -105.245
rradius 120.371
rwrist -12.8151
rhand -23.9716 0.986961
rfingers 7.12502
rthumb 2.50478 -28.9781
lclavicle 6.86304e-014 7.25564e-015
lhumerus -43.1728 -8.21988 84.5335
lradius 45.3292
lwrist 60.941
lhand -21.5063 -11.8107
lfingers 7.12502
lthumb 4.88547 18.113
rfemur -41.474 3.21243 15.4514
rtibia 92.2639
rfoot 13.1844 13.7005
rtoes -16.5691
lfemur -24.3416 0.168148 -28.2404
ltibia 31.6842
lfoot -16.2618 -3.74091
ltoes -22.1939
900
root -4.42486 16.1954 9.1587 -171.119 192.792 -175.898
lowerback 6.10807 3.74441 -3.39764
upperback -8.0859 4.41964 -2.29374
thorax -12.2564 2.28797 -1.33357
lowerneck 10.0658 -12.096 -28.9289
upperneck -1.99662 -20.9336 38.7713
head 5.89876 -11.5857 17.5036
rclavicle -4.64659e-014 -1.97791e-014
rhumerus -29.6134 29.3232 -105.089
rradius 120.407
rwrist -11.7626
rhand -24.06 1.88028
rfingers 7.12502
rthumb 2.41937 -28.0857
lclavicle -4.64659e-014 -1.97791e-014
lhumerus -42.8177 -8.78211 84.6052
lradius 46.7336
lwrist 60.5269
lhand -19.8599 -11.1805
lfingers 7.12502
lthumb 6.47508 18.7005
rfemur -43.7122 3.12844 15.9269
rtibia 93.1043
rfoot 12.446 12.5121
rtoes -17.2437
lfemur -23.4248 0.383464 -28.3764
ltibia 30.9314
lfoot -16.5857 -3.9466
ltoes -22.0472
901
root -4.42855 16.214 9.33008 -171.001 192.595 -175.899
lowerback 6.01683 3.71738 -3.43073
upperback -8.07994 4.37997 -2.33053
thorax -12.1927 2.27069 -1.34074
lowerneck 10.1749 -12.1098 -28.9267
upperneck -2.12013 -20.9603 38.8691
head 5.87268 -11.6171 17.5527
rclavicle 1.19147e-014 -5.56597e-015
rhumerus -29.5949 29.2609 -104.945
rradius 120.29
rwrist -10.7527
rhand -24.1633 2.65511
rfingers 7.12502
rthumb 2.31962 -27.312
lclavicle 1.19147e-014 -5.56597e-015
lhumerus -42.4217 -9.29972 84.6882
lradius 48.003
lwrist 59.7366
lhand -18.5434 -10.6309
lfingers 7.12502
lthumb 7.74591 19.2073
rfemur -45.8459 3.00594 16.3641
rtibia 93.7285
rfoot 11.8974 11.2852
rtoes -17.7355
lfemur -22.463 0.561547 -28.5381
ltibia 30.1546
lfoot -16.8915 -4.15357
ltoes -21.8993
902
root -4.4326 16.2295 9.50275 -170.921 192.352 -175.859
lowerback 5.92633 3.67242 -3.49984
upperback -8.05692 4.31201 -2.36935
thorax -12.1124 2.24285 -1.32456
lowerneck 10.2653 -12.1275 -28.9247
upperneck -2.20833 -20.9944 38.9427
head 5.85833 -11.6485 17.5869
rclavicle -4.83047e-014 -1.68967e-015
rhumerus -29.6111 29.1351 -104.806
rradius 120.035
rwrist -9.89107
rhand -24.2755 3.28426
rfingers 7.12502
rthumb 2.21126 -26.684
lclavicle -4.83047e-014 -1.68967e-015
lhumerus -41.9767 -9.76568 84.766
lradius 49.1756
lwrist 58.8202
lhand -17.5339 -10.196
lfingers 7.12502
lthumb 8.72012 19.6038
rfemur -47.8655 2.83602 16.7475
rtibia 94.136
rfoot 11.502 10.088
rtoes -18.0991
lfemur -21.4542 0.69564 -28.7319
ltibia 29.353
lfoot -17.1714 -4.37349
ltoes -21.6963
903
root -4.43692 16.2414 9.67543 -170.872 192.073 -175.785
lowerback 5.86562 3.61197 -3.60772
upperback -8.03281 4.21756 -2.40469
thorax -12.0526 2.20555 -1.28134
lowerneck 10.3347 -12.1466 -28.9233
upperneck -2.24504 -21.0348 38.9804
head 5.85792 -11.6779 17.6008
rclavicle 3.6154e-015 -1.2921e-014
rhumerus -29.6807 28.9613 -104.681
rradius 119.652
rwrist -9.25783
rhand -24.3997 3.75471
rfingers 7.12502
rthumb 2.09135 -26.2148
lclavicle 3.6154e-015 -1.2921e-014
lhumerus -41.5195 -10.1702 84.8375
lradius 50.2931
lwrist 57.9575
lhand -16.8262 -9.86047
lfingers 7.12502
lthumb 9.40308 19.9098
rfemur -49.7856 2.63449 17.0807
rtibia 94.33
rfoot 11.2369 8.96527
rtoes -18.3006
lfemur -20.4136 0.811342 -28.9499
ltibia 28.5295
lfoot -17.4185 -4.63423
ltoes -21.4123
904
root -4.44118 16.2503 9.84876 -170.853 191.748 -175.68
lowerback 5.81575 3.5327 -3.73315
upperback -7.99906 4.09514 -2.44313
thorax -11.989 2.15597 -1.22753
lowerneck 10.3871 -12.1649 -28.9203
upperneck -2.24668 -21.0762 38.9968
head 5.86654 -11.7044 17.603
rclavicle -2.21893e-014 1.78906e-014
rhumerus -29.7944 28.7397 -104.568
rradius 119.157
rwrist -8.89377
rhand -24.5317 4.0947
rfingers 7.12502
rthumb 1.96386 -25.876
lclavicle -2.21893e-014 1.78906e-014
lhumerus -41.0515 -10.5205 84.8981
lradius 51.3743
lwrist 57.2243
lhand -16.3967 -9.63187
lfingers 7.12502
lthumb 9.8174 20.1193
rfemur -51.5833 2.39063 17.3598
rtibia 94.3041
rfoot 11.0494 7.95229
rtoes -18.4037
lfemur -19.335 0.932481 -29.1907
ltibia 27.6815
lfoot -17.6355 -4.97369
ltoes -21.0267
905
root -4.44539 16.2566 10.0226 -170.868 191.375 -175.55
lowerback 5.79897 3.4337 -3.87477
upperback -7.96201 3.94285 -2.47936
thorax -11.9425 2.09322 -1.15988
lowerneck 10.4337 -12.1762 -28.9195
upperneck -2.20814 -21.1131 38.9872
head 5.88094 -11.726 17.5947
rclavicle -7.28919e-014 1.2921e-014
rhumerus -29.9734 28.481 -104.478
rradius 118.559
rwrist -8.8088
rhand -24.676 4.30655
rfingers 7.12502
rthumb 1.82449 -25.6654
lclavicle -7.28919e-014 1.2921e-014
lhumerus -40.6011 -10.8121 84.9585
lradius 52.423
lwrist 56.5783
lhand -16.2205 -9.51477
lfingers 7.12502
lthumb 9.98741 20.2283
rfemur -53.2384 2.10463 17.5899
rtibia 94.0565
rfoot 10.8739 7.05883
rtoes -18.4687
lfemur -18.2079 1.06556 -29.4457
ltibia 26.8079
lfoot -17.8291 -5.39755
ltoes -20.5588
906
root -4.44964 16.2603 10.1973 -170.923 190.955 -175.407
lowerback 5.81312 3.31484 -4.01907
upperback -7.91274 3.76247 -2.51216
thorax -11.9003 2.01706 -1.08392
lowerneck 10.4574 -12.1866 -28.9182
upperneck -2.12923 -21.151 38.954
head 5.90668 -11.7438 17.5732
rclavicle 8.3738e-015 1.78906e-014
rhumerus -30.2027 28.1898 -104.404
rradius 117.86
rwrist -8.97232
rhand -24.8337 4.40681
rfingers 7.12502
rthumb 1.6722 -25.5664
lclavicle 8.3738e-015 1.78906e-014
lhumerus -40.1594 -11.0544 85.0245
lradius 53.4233
lwrist 55.923
lhand -16.2769 -9.51366
lfingers 7.12502
lthumb 9.93301 20.232
rfemur -54.7304 1.78224 17.7824
rtibia 93.5858
rfoot 10.6611 6.30229
rtoes -18.5713
lfemur -17.0205 1.21895 -29.6999
ltibia 25.9029
lfoot -18.0052 -5.90897
ltoes -20.0408
907
root -4.45398 16.2613 10.3731 -171.022 190.489 -175.246
lowerback 5.86774 3.17632 -4.17204
upperback -7.85662 3.55283 -2.54012
thorax -11.8748 1.92755 -0.995411
lowerneck 10.477 -12.1902 -28.9221
upperneck -2.01419 -21.1848 38.8966
head 5.9377 -11.7574 17.5428
rclavicle -5.11622e-014 -7.15625e-015
rhumerus -30.5191 27.8684 -104.361
rradius 117.076
rwrist -9.32015
rhand -25.0052 4.39287
rfingers 7.12502
rthumb 1.5065 -25.5816
lclavicle -5.11622e-014 -7.15625e-015
lhumerus -39.7565 -11.2378 85.1042
lradius 54.3799
lwrist 55.1518
lhand -16.5236 -9.63128
lfingers 7.12502
lthumb 9.695 20.1256
rfemur -56.0433 1.42227 17.9315
rtibia 92.898
rfoot 10.3858 5.68223
rtoes -18.7093
lfemur -15.7651 1.40303 -29.9551
ltibia 24.9727
lfoot -18.1783 -6.50972
ltoes -19.5043
